STARTFONT 2.1
FONT -gumix-asciicker-medium-r-normal--14-120-72-72-c-120-iso10646-1
SIZE 14 72 72
FONTBOUNDINGBOX 14 14 0 0
STARTPROPERTIES 23
ADD_STYLE_NAME ""
AVERAGE_WIDTH 120
CHARSET_ENCODING "1"
CHARSET_REGISTRY "ISO10646"
COPYRIGHT "gumix"
FAMILY_NAME "asciicker"
FOUNDRY "gumix"
MIN_SPACE 14
NOTICE "Licensed"
PIXEL_SIZE 14
POINT_SIZE 120
QUAD_WIDTH 14
RESOLUTION_X 72
RESOLUTION_Y 72
SETWIDTH_NAME "Normal"
SLANT "R"
SPACING "M"
WEIGHT 10
WEIGHT_NAME "Bold"
X_HEIGHT 10
DEFAULT_CHAR 33
FONT_DESCENT 0
FONT_ASCENT 14
ENDPROPERTIES
CHARS 256
STARTCHAR U+0000
ENCODING 0
SWIDTH 500 0
DWIDTH 14 0
BBX 14 14 0 0
BITMAP
0000
0000
0000
0000
0000
0000
0000
0000
0000
0000
0000
0000
0000
0000
ENDCHAR
STARTCHAR U+263A
ENCODING 9786
SWIDTH 500 0
DWIDTH 14 0
BBX 14 14 0 0
BITMAP
0000
0000
1FC0
3060
2020
2DA0
2020
2020
2FA0
2720
3060
1FC0
0000
0000
ENDCHAR
STARTCHAR U+263B
ENCODING 9787
SWIDTH 500 0
DWIDTH 14 0
BBX 14 14 0 0
BITMAP
0000
0000
1FC0
3FE0
3FE0
3260
3FE0
3FE0
3060
38E0
3FE0
1FC0
0000
0000
ENDCHAR
STARTCHAR U+2665
ENCODING 9829
SWIDTH 500 0
DWIDTH 14 0
BBX 14 14 0 0
BITMAP
0000
0000
1860
3CF0
3FF0
3FF0
3FF0
1FE0
1FE0
0FC0
0780
0300
0000
0000
ENDCHAR
STARTCHAR U+2666
ENCODING 9830
SWIDTH 500 0
DWIDTH 14 0
BBX 14 14 0 0
BITMAP
0000
0000
0300
0780
0FC0
1FE0
3FF0
3FF0
1FE0
0FC0
0780
0300
0000
0000
ENDCHAR
STARTCHAR U+2663
ENCODING 9827
SWIDTH 500 0
DWIDTH 14 0
BBX 14 14 0 0
BITMAP
0000
0300
0780
0780
0780
3B70
7FF8
7FF8
7FF8
3B70
0300
0FC0
0000
0000
ENDCHAR
STARTCHAR U+2660
ENCODING 9824
SWIDTH 500 0
DWIDTH 14 0
BBX 14 14 0 0
BITMAP
0000
0300
0780
0FC0
1FE0
3FF0
3FF0
3FF0
1B60
0300
0300
0FC0
0000
0000
ENDCHAR
STARTCHAR U+2022
ENCODING 8226
SWIDTH 500 0
DWIDTH 14 0
BBX 14 14 0 0
BITMAP
0000
0000
0000
0000
0780
0FC0
0FC0
0FC0
0FC0
0780
0000
0000
0000
0000
ENDCHAR
STARTCHAR U+25D8
ENCODING 9688
SWIDTH 500 0
DWIDTH 14 0
BBX 14 14 0 0
BITMAP
FFFC
FFFC
FFFC
FFFC
F87C
F03C
F03C
F03C
F03C
F87C
FFFC
FFFC
FFFC
FFFC
ENDCHAR
STARTCHAR U+25CB
ENCODING 9675
SWIDTH 500 0
DWIDTH 14 0
BBX 14 14 0 0
BITMAP
0000
0000
0000
0780
0FC0
1CE0
1860
1860
1CE0
0FC0
0780
0000
0000
0000
ENDCHAR
STARTCHAR U+25D9
ENCODING 9689
SWIDTH 500 0
DWIDTH 14 0
BBX 14 14 0 0
BITMAP
FFFC
FFFC
FFFC
F87C
F03C
E31C
E79C
E79C
E31C
F03C
F87C
FFFC
FFFC
FFFC
ENDCHAR
STARTCHAR U+2642
ENCODING 9794
SWIDTH 500 0
DWIDTH 14 0
BBX 14 14 0 0
BITMAP
0000
07E0
00E0
03A0
0720
0F20
1F80
18C0
18C0
18C0
18C0
0F80
0000
0000
ENDCHAR
STARTCHAR U+2640
ENCODING 9792
SWIDTH 500 0
DWIDTH 14 0
BBX 14 14 0 0
BITMAP
0000
0780
0CC0
0CC0
0CC0
0CC0
0780
0300
0300
0FC0
0300
0300
0000
0000
ENDCHAR
STARTCHAR U+266A
ENCODING 9834
SWIDTH 500 0
DWIDTH 14 0
BBX 14 14 0 0
BITMAP
0000
0000
03E0
0310
0300
03E0
0310
0300
1F00
3F00
3F00
1E00
0000
0000
ENDCHAR
STARTCHAR U+266B
ENCODING 9835
SWIDTH 500 0
DWIDTH 14 0
BBX 14 14 0 0
BITMAP
0000
0000
0FF0
0C30
0C30
0FF0
0C30
0C30
0C30
0CF0
3DF0
7CE0
3800
0000
ENDCHAR
STARTCHAR U+263C
ENCODING 9788
SWIDTH 500 0
DWIDTH 14 0
BBX 14 14 0 0
BITMAP
0000
0000
0300
3330
1B60
0FC0
3CF0
3CF0
0FC0
1B60
3330
0300
0000
0000
ENDCHAR
STARTCHAR U+25BA
ENCODING 9658
SWIDTH 500 0
DWIDTH 14 0
BBX 14 14 0 0
BITMAP
0000
0000
3000
3C00
3F00
3FC0
3FF0
3FF0
3FC0
3F00
3C00
3000
0000
0000
ENDCHAR
STARTCHAR U+25C4
ENCODING 9668
SWIDTH 500 0
DWIDTH 14 0
BBX 14 14 0 0
BITMAP
0000
0000
0030
00F0
03F0
0FF0
3FF0
3FF0
0FF0
03F0
00F0
0030
0000
0000
ENDCHAR
STARTCHAR U+2195
ENCODING 8597
SWIDTH 500 0
DWIDTH 14 0
BBX 14 14 0 0
BITMAP
0000
0200
0700
0F80
1FC0
0700
0700
0700
0700
1FC0
0F80
0700
0200
0000
ENDCHAR
STARTCHAR U+203C
ENCODING 8252
SWIDTH 500 0
DWIDTH 14 0
BBX 14 14 0 0
BITMAP
0000
0000
0CC0
0CC0
0CC0
0CC0
0CC0
0CC0
0000
0000
0CC0
0CC0
0000
0000
ENDCHAR
STARTCHAR U+00B6
ENCODING 182
SWIDTH 500 0
DWIDTH 14 0
BBX 14 14 0 0
BITMAP
0000
0000
1FE0
3360
3360
3360
3360
1F60
0360
0360
0360
0360
0000
0000
ENDCHAR
STARTCHAR U+00A7
ENCODING 167
SWIDTH 500 0
DWIDTH 14 0
BBX 14 14 0 0
BITMAP
0000
07E0
0E30
0700
07C0
0C60
0C60
0C60
07C0
01C0
18E0
0FC0
0000
0000
ENDCHAR
STARTCHAR U+25AC
ENCODING 9644
SWIDTH 500 0
DWIDTH 14 0
BBX 14 14 0 0
BITMAP
0000
0000
0000
0000
0000
0000
0000
0000
0000
3FF0
3FF0
3FF0
0000
0000
ENDCHAR
STARTCHAR U+21A8
ENCODING 8616
SWIDTH 500 0
DWIDTH 14 0
BBX 14 14 0 0
BITMAP
0000
0000
0300
0780
0FC0
0300
0300
0300
0300
0FC0
0780
0300
0FC0
0000
ENDCHAR
STARTCHAR U+2191
ENCODING 8593
SWIDTH 500 0
DWIDTH 14 0
BBX 14 14 0 0
BITMAP
0000
0300
0780
0FC0
1FE0
0300
0300
0300
0300
0300
0300
0300
0000
0000
ENDCHAR
STARTCHAR U+2193
ENCODING 8595
SWIDTH 500 0
DWIDTH 14 0
BBX 14 14 0 0
BITMAP
0000
0300
0300
0300
0300
0300
0300
0300
1FE0
0FC0
0780
0300
0000
0000
ENDCHAR
STARTCHAR U+2192
ENCODING 8594
SWIDTH 500 0
DWIDTH 14 0
BBX 14 14 0 0
BITMAP
0000
0000
0000
0040
0060
0070
3FF8
3FF8
0070
0060
0040
0000
0000
0000
ENDCHAR
STARTCHAR U+2190
ENCODING 8592
SWIDTH 500 0
DWIDTH 14 0
BBX 14 14 0 0
BITMAP
0000
0000
0000
0800
1800
3800
7FF0
7FF0
3800
1800
0800
0000
0000
0000
ENDCHAR
STARTCHAR U+221F
ENCODING 8735
SWIDTH 500 0
DWIDTH 14 0
BBX 14 14 0 0
BITMAP
0000
0000
0000
0000
0000
3000
3000
3000
3000
3FF0
0000
0000
0000
0000
ENDCHAR
STARTCHAR U+2194
ENCODING 8596
SWIDTH 500 0
DWIDTH 14 0
BBX 14 14 0 0
BITMAP
0000
0000
0000
0000
0840
1860
3FF0
3FF0
1860
0840
0000
0000
0000
0000
ENDCHAR
STARTCHAR U+25B2
ENCODING 9650
SWIDTH 500 0
DWIDTH 14 0
BBX 14 14 0 0
BITMAP
0000
0000
0300
0300
0780
0780
0FC0
0FC0
1FE0
1FE0
3FF0
3FF0
0000
0000
ENDCHAR
STARTCHAR U+25BC
ENCODING 9660
SWIDTH 500 0
DWIDTH 14 0
BBX 14 14 0 0
BITMAP
0000
0000
3FF0
3FF0
1FE0
1FE0
0FC0
0FC0
0780
0780
0300
0300
0000
0000
ENDCHAR
STARTCHAR U+0020
ENCODING 32
SWIDTH 500 0
DWIDTH 14 0
BBX 14 14 0 0
BITMAP
0000
0000
0000
0000
0000
0000
0000
0000
0000
0000
0000
0000
0000
0000
ENDCHAR
STARTCHAR U+0021
ENCODING 33
SWIDTH 500 0
DWIDTH 14 0
BBX 14 14 0 0
BITMAP
0000
0000
0300
0780
0780
0780
0780
0300
0300
0000
0300
0300
0000
0000
ENDCHAR
STARTCHAR U+0022
ENCODING 34
SWIDTH 500 0
DWIDTH 14 0
BBX 14 14 0 0
BITMAP
0000
0000
0CC0
0CC0
0CC0
0480
0000
0000
0000
0000
0000
0000
0000
0000
ENDCHAR
STARTCHAR U+0023
ENCODING 35
SWIDTH 500 0
DWIDTH 14 0
BBX 14 14 0 0
BITMAP
0000
0000
0CC0
0CC0
1FE0
0CC0
0CC0
0CC0
0CC0
1FE0
0CC0
0CC0
0000
0000
ENDCHAR
STARTCHAR U+0024
ENCODING 36
SWIDTH 500 0
DWIDTH 14 0
BBX 14 14 0 0
BITMAP
0000
0300
0300
0FE0
1800
1800
1FC0
0FE0
0060
0060
1FC0
0300
0300
0000
ENDCHAR
STARTCHAR U+0025
ENCODING 37
SWIDTH 500 0
DWIDTH 14 0
BBX 14 14 0 0
BITMAP
0000
0000
0000
1C20
1C60
1CC0
0180
0300
0600
0CE0
18E0
10E0
0000
0000
ENDCHAR
STARTCHAR U+0026
ENCODING 38
SWIDTH 500 0
DWIDTH 14 0
BBX 14 14 0 0
BITMAP
0000
0000
0F00
1980
1980
0F00
1FA0
19E0
18C0
18C0
19C0
0F60
0000
0000
ENDCHAR
STARTCHAR U+0027
ENCODING 39
SWIDTH 500 0
DWIDTH 14 0
BBX 14 14 0 0
BITMAP
0000
0000
0300
0300
0300
0600
0000
0000
0000
0000
0000
0000
0000
0000
ENDCHAR
STARTCHAR U+0028
ENCODING 40
SWIDTH 500 0
DWIDTH 14 0
BBX 14 14 0 0
BITMAP
0000
0000
01C0
0300
0600
0C00
0C00
0C00
0C00
0600
0300
01C0
0000
0000
ENDCHAR
STARTCHAR U+0029
ENCODING 41
SWIDTH 500 0
DWIDTH 14 0
BBX 14 14 0 0
BITMAP
0000
0000
0E00
0300
0180
00C0
00C0
00C0
00C0
0180
0300
0E00
0000
0000
ENDCHAR
STARTCHAR U+002A
ENCODING 42
SWIDTH 500 0
DWIDTH 14 0
BBX 14 14 0 0
BITMAP
0000
0000
0300
1320
0B40
0780
3FF0
3FF0
0780
0B40
1320
0300
0000
0000
ENDCHAR
STARTCHAR U+002B
ENCODING 43
SWIDTH 500 0
DWIDTH 14 0
BBX 14 14 0 0
BITMAP
0000
0000
0000
0300
0300
0300
1FE0
1FE0
0300
0300
0300
0000
0000
0000
ENDCHAR
STARTCHAR U+002C
ENCODING 44
SWIDTH 500 0
DWIDTH 14 0
BBX 14 14 0 0
BITMAP
0000
0000
0000
0000
0000
0000
0000
0000
0000
0000
0700
0700
0C00
0000
ENDCHAR
STARTCHAR U+002D
ENCODING 45
SWIDTH 500 0
DWIDTH 14 0
BBX 14 14 0 0
BITMAP
0000
0000
0000
0000
0000
0000
1FE0
1FE0
0000
0000
0000
0000
0000
0000
ENDCHAR
STARTCHAR U+002E
ENCODING 46
SWIDTH 500 0
DWIDTH 14 0
BBX 14 14 0 0
BITMAP
0000
0000
0000
0000
0000
0000
0000
0000
0000
0000
0700
0700
0000
0000
ENDCHAR
STARTCHAR U+002F
ENCODING 47
SWIDTH 500 0
DWIDTH 14 0
BBX 14 14 0 0
BITMAP
0000
0000
0030
0070
00E0
01C0
0380
0700
0E00
1C00
3800
3000
0000
0000
ENDCHAR
STARTCHAR U+0030
ENCODING 48
SWIDTH 500 0
DWIDTH 14 0
BBX 14 14 0 0
BITMAP
0000
0000
0FC0
1860
18E0
19E0
1B60
1B60
1E60
1C60
1860
0FC0
0000
0000
ENDCHAR
STARTCHAR U+0031
ENCODING 49
SWIDTH 500 0
DWIDTH 14 0
BBX 14 14 0 0
BITMAP
0000
0000
0100
0300
0F00
0F00
0300
0300
0300
0300
0300
0FC0
0000
0000
ENDCHAR
STARTCHAR U+0032
ENCODING 50
SWIDTH 500 0
DWIDTH 14 0
BBX 14 14 0 0
BITMAP
0000
0000
07C0
0C60
0C60
0060
00C0
0180
0300
0600
0C60
0FE0
0000
0000
ENDCHAR
STARTCHAR U+0033
ENCODING 51
SWIDTH 500 0
DWIDTH 14 0
BBX 14 14 0 0
BITMAP
0000
0000
07C0
0C60
0060
0060
03C0
03C0
0060
0060
0C60
07C0
0000
0000
ENDCHAR
STARTCHAR U+0034
ENCODING 52
SWIDTH 500 0
DWIDTH 14 0
BBX 14 14 0 0
BITMAP
0000
0000
00C0
01C0
03C0
06C0
0CC0
1FE0
1FE0
00C0
00C0
01E0
0000
0000
ENDCHAR
STARTCHAR U+0035
ENCODING 53
SWIDTH 500 0
DWIDTH 14 0
BBX 14 14 0 0
BITMAP
0000
0000
1FC0
1800
1800
1800
1F80
1FC0
00C0
00C0
18C0
0F80
0000
0000
ENDCHAR
STARTCHAR U+0036
ENCODING 54
SWIDTH 500 0
DWIDTH 14 0
BBX 14 14 0 0
BITMAP
0000
0000
03C0
0600
0C00
0C00
0FC0
0FE0
0C60
0C60
0C60
07C0
0000
0000
ENDCHAR
STARTCHAR U+0037
ENCODING 55
SWIDTH 500 0
DWIDTH 14 0
BBX 14 14 0 0
BITMAP
0000
0000
1FE0
1860
1860
0060
00C0
0180
0300
0600
0600
0600
0000
0000
ENDCHAR
STARTCHAR U+0038
ENCODING 56
SWIDTH 500 0
DWIDTH 14 0
BBX 14 14 0 0
BITMAP
0000
0000
07C0
0C60
0C60
0E60
07C0
07C0
0CE0
0C60
0C60
07C0
0000
0000
ENDCHAR
STARTCHAR U+0039
ENCODING 57
SWIDTH 500 0
DWIDTH 14 0
BBX 14 14 0 0
BITMAP
0000
0000
07C0
0C60
0C60
0C60
0FE0
07E0
00E0
00C0
01C0
0780
0000
0000
ENDCHAR
STARTCHAR U+003A
ENCODING 58
SWIDTH 500 0
DWIDTH 14 0
BBX 14 14 0 0
BITMAP
0000
0000
0000
0000
0000
0700
0700
0000
0000
0700
0700
0000
0000
0000
ENDCHAR
STARTCHAR U+003B
ENCODING 59
SWIDTH 500 0
DWIDTH 14 0
BBX 14 14 0 0
BITMAP
0000
0000
0000
0000
0000
0700
0700
0000
0000
0700
0700
0300
0600
0000
ENDCHAR
STARTCHAR U+003C
ENCODING 60
SWIDTH 500 0
DWIDTH 14 0
BBX 14 14 0 0
BITMAP
0000
0000
00C0
0180
0300
0600
0C00
0C00
0600
0300
0180
00C0
0000
0000
ENDCHAR
STARTCHAR U+003D
ENCODING 61
SWIDTH 500 0
DWIDTH 14 0
BBX 14 14 0 0
BITMAP
0000
0000
0000
0000
0FC0
0FC0
0000
0000
0FC0
0FC0
0000
0000
0000
0000
ENDCHAR
STARTCHAR U+003E
ENCODING 62
SWIDTH 500 0
DWIDTH 14 0
BBX 14 14 0 0
BITMAP
0000
0000
0C00
0600
0300
0180
00C0
00C0
0180
0300
0600
0C00
0000
0000
ENDCHAR
STARTCHAR U+003F
ENCODING 63
SWIDTH 500 0
DWIDTH 14 0
BBX 14 14 0 0
BITMAP
0000
0000
0F80
1DC0
18C0
01C0
0380
0300
0300
0000
0300
0300
0000
0000
ENDCHAR
STARTCHAR U+0040
ENCODING 64
SWIDTH 500 0
DWIDTH 14 0
BBX 14 14 0 0
BITMAP
0000
0000
0FC0
1860
1860
1860
1BE0
1BE0
1BE0
1800
1800
0FC0
0000
0000
ENDCHAR
STARTCHAR U+0041
ENCODING 65
SWIDTH 500 0
DWIDTH 14 0
BBX 14 14 0 0
BITMAP
0000
0000
0300
0780
0CC0
1860
1860
1860
1FE0
1860
1860
1860
0000
0000
ENDCHAR
STARTCHAR U+0042
ENCODING 66
SWIDTH 500 0
DWIDTH 14 0
BBX 14 14 0 0
BITMAP
0000
0000
1FC0
0C60
0C60
0C60
0FC0
0FC0
0C60
0C60
0C60
1FC0
0000
0000
ENDCHAR
STARTCHAR U+0043
ENCODING 67
SWIDTH 500 0
DWIDTH 14 0
BBX 14 14 0 0
BITMAP
0000
0000
07C0
0C60
1C60
1800
1800
1800
1800
1C60
0C60
07C0
0000
0000
ENDCHAR
STARTCHAR U+0044
ENCODING 68
SWIDTH 500 0
DWIDTH 14 0
BBX 14 14 0 0
BITMAP
0000
0000
1F80
0CC0
0C60
0C60
0C60
0C60
0C60
0C60
0CC0
1F80
0000
0000
ENDCHAR
STARTCHAR U+0045
ENCODING 69
SWIDTH 500 0
DWIDTH 14 0
BBX 14 14 0 0
BITMAP
0000
0000
1FE0
0C20
0C00
0C40
0FC0
0FC0
0C40
0C00
0C20
1FE0
0000
0000
ENDCHAR
STARTCHAR U+0046
ENCODING 70
SWIDTH 500 0
DWIDTH 14 0
BBX 14 14 0 0
BITMAP
0000
0000
1FE0
0C60
0C20
0C40
0FC0
0FC0
0C40
0C00
0C00
1E00
0000
0000
ENDCHAR
STARTCHAR U+0047
ENCODING 71
SWIDTH 500 0
DWIDTH 14 0
BBX 14 14 0 0
BITMAP
0000
0000
07C0
0C60
1860
1800
1800
1800
18E0
1860
0C60
07E0
0000
0000
ENDCHAR
STARTCHAR U+0048
ENCODING 72
SWIDTH 500 0
DWIDTH 14 0
BBX 14 14 0 0
BITMAP
0000
0000
0C60
0C60
0C60
0C60
0FE0
0FE0
0C60
0C60
0C60
0C60
0000
0000
ENDCHAR
STARTCHAR U+0049
ENCODING 73
SWIDTH 500 0
DWIDTH 14 0
BBX 14 14 0 0
BITMAP
0000
0000
07C0
0380
0380
0380
0380
0380
0380
0380
0380
07C0
0000
0000
ENDCHAR
STARTCHAR U+004A
ENCODING 74
SWIDTH 500 0
DWIDTH 14 0
BBX 14 14 0 0
BITMAP
0000
0000
01E0
00C0
00C0
00C0
00C0
00C0
18C0
18C0
18C0
0F80
0000
0000
ENDCHAR
STARTCHAR U+004B
ENCODING 75
SWIDTH 500 0
DWIDTH 14 0
BBX 14 14 0 0
BITMAP
0000
0000
1C60
0C60
0CC0
0CC0
0F80
0F80
0CC0
0CC0
0C60
1C60
0000
0000
ENDCHAR
STARTCHAR U+004C
ENCODING 76
SWIDTH 500 0
DWIDTH 14 0
BBX 14 14 0 0
BITMAP
0000
0000
1E00
0C00
0C00
0C00
0C00
0C00
0C00
0C20
0C60
1FE0
0000
0000
ENDCHAR
STARTCHAR U+004D
ENCODING 77
SWIDTH 500 0
DWIDTH 14 0
BBX 14 14 0 0
BITMAP
0000
0000
1860
1CE0
1FE0
1FE0
1B60
1860
1860
1860
1860
1860
0000
0000
ENDCHAR
STARTCHAR U+004E
ENCODING 78
SWIDTH 500 0
DWIDTH 14 0
BBX 14 14 0 0
BITMAP
0000
0000
1860
1860
1C60
1E60
1F60
1BE0
19E0
18E0
1860
1860
0000
0000
ENDCHAR
STARTCHAR U+004F
ENCODING 79
SWIDTH 500 0
DWIDTH 14 0
BBX 14 14 0 0
BITMAP
0000
0000
0780
0CC0
1860
1860
1860
1860
1860
1860
0CC0
0780
0000
0000
ENDCHAR
STARTCHAR U+0050
ENCODING 80
SWIDTH 500 0
DWIDTH 14 0
BBX 14 14 0 0
BITMAP
0000
0000
1FC0
0C60
0C60
0C60
0FE0
0FC0
0C00
0C00
0C00
1E00
0000
0000
ENDCHAR
STARTCHAR U+0051
ENCODING 81
SWIDTH 500 0
DWIDTH 14 0
BBX 14 14 0 0
BITMAP
0000
0000
0780
0CC0
1860
1860
1860
18E0
19E0
0FC0
00C0
01E0
0000
0000
ENDCHAR
STARTCHAR U+0052
ENCODING 82
SWIDTH 500 0
DWIDTH 14 0
BBX 14 14 0 0
BITMAP
0000
0000
1FC0
0C60
0C60
0C60
0FC0
0FC0
0CC0
0C60
0C60
1C60
0000
0000
ENDCHAR
STARTCHAR U+0053
ENCODING 83
SWIDTH 500 0
DWIDTH 14 0
BBX 14 14 0 0
BITMAP
0000
0000
0FC0
1860
1860
1800
1F80
0FC0
00E0
1860
1860
0FC0
0000
0000
ENDCHAR
STARTCHAR U+0054
ENCODING 84
SWIDTH 500 0
DWIDTH 14 0
BBX 14 14 0 0
BITMAP
0000
0000
1FC0
1740
0700
0700
0700
0700
0700
0700
0700
0F80
0000
0000
ENDCHAR
STARTCHAR U+0055
ENCODING 85
SWIDTH 500 0
DWIDTH 14 0
BBX 14 14 0 0
BITMAP
0000
0000
18C0
18C0
18C0
18C0
18C0
18C0
18C0
18C0
18C0
0F80
0000
0000
ENDCHAR
STARTCHAR U+0056
ENCODING 86
SWIDTH 500 0
DWIDTH 14 0
BBX 14 14 0 0
BITMAP
0000
0000
0C60
0C60
0C60
0C60
0C60
0C60
0C60
0C60
07C0
0380
0000
0000
ENDCHAR
STARTCHAR U+0057
ENCODING 87
SWIDTH 500 0
DWIDTH 14 0
BBX 14 14 0 0
BITMAP
0000
0000
1860
1860
1860
1860
1860
1B60
1B60
0CC0
0CC0
0CC0
0000
0000
ENDCHAR
STARTCHAR U+0058
ENCODING 88
SWIDTH 500 0
DWIDTH 14 0
BBX 14 14 0 0
BITMAP
0000
0000
0C60
0C60
0C60
07C0
0380
0380
07C0
0C60
0C60
0C60
0000
0000
ENDCHAR
STARTCHAR U+0059
ENCODING 89
SWIDTH 500 0
DWIDTH 14 0
BBX 14 14 0 0
BITMAP
0000
0000
0C60
0C60
0C60
0C60
0C60
07C0
0380
0380
0380
07C0
0000
0000
ENDCHAR
STARTCHAR U+005A
ENCODING 90
SWIDTH 500 0
DWIDTH 14 0
BBX 14 14 0 0
BITMAP
0000
0000
1FE0
18E0
10C0
0180
0300
0600
0C00
1820
1860
1FE0
0000
0000
ENDCHAR
STARTCHAR U+005B
ENCODING 91
SWIDTH 500 0
DWIDTH 14 0
BBX 14 14 0 0
BITMAP
0000
0000
0780
0600
0600
0600
0600
0600
0600
0600
0600
0780
0000
0000
ENDCHAR
STARTCHAR U+005C
ENCODING 92
SWIDTH 500 0
DWIDTH 14 0
BBX 14 14 0 0
BITMAP
0000
0000
3000
3800
1C00
0E00
0700
0380
01C0
00E0
0070
0030
0000
0000
ENDCHAR
STARTCHAR U+005D
ENCODING 93
SWIDTH 500 0
DWIDTH 14 0
BBX 14 14 0 0
BITMAP
0000
0000
0780
0180
0180
0180
0180
0180
0180
0180
0180
0780
0000
0000
ENDCHAR
STARTCHAR U+005E
ENCODING 94
SWIDTH 500 0
DWIDTH 14 0
BBX 14 14 0 0
BITMAP
0000
0300
0780
0CC0
1860
0000
0000
0000
0000
0000
0000
0000
0000
0000
ENDCHAR
STARTCHAR U+005F
ENCODING 95
SWIDTH 500 0
DWIDTH 14 0
BBX 14 14 0 0
BITMAP
0000
0000
0000
0000
0000
0000
0000
0000
0000
0000
0000
0000
FFFC
0000
ENDCHAR
STARTCHAR U+0060
ENCODING 96
SWIDTH 500 0
DWIDTH 14 0
BBX 14 14 0 0
BITMAP
0000
0600
0600
0300
0000
0000
0000
0000
0000
0000
0000
0000
0000
0000
ENDCHAR
STARTCHAR U+0061
ENCODING 97
SWIDTH 500 0
DWIDTH 14 0
BBX 14 14 0 0
BITMAP
0000
0000
0000
0000
0000
0F80
00C0
0FC0
18C0
18C0
18C0
0F60
0000
0000
ENDCHAR
STARTCHAR U+0062
ENCODING 98
SWIDTH 500 0
DWIDTH 14 0
BBX 14 14 0 0
BITMAP
0000
0000
1C00
0C00
0C00
0FC0
0C60
0C60
0C60
0C60
0C60
1BC0
0000
0000
ENDCHAR
STARTCHAR U+0063
ENCODING 99
SWIDTH 500 0
DWIDTH 14 0
BBX 14 14 0 0
BITMAP
0000
0000
0000
0000
0000
0F80
18C0
1800
1800
1800
18C0
0F80
0000
0000
ENDCHAR
STARTCHAR U+0064
ENCODING 100
SWIDTH 500 0
DWIDTH 14 0
BBX 14 14 0 0
BITMAP
0000
0000
01C0
00C0
00C0
0FC0
18C0
18C0
18C0
18C0
18C0
0F60
0000
0000
ENDCHAR
STARTCHAR U+0065
ENCODING 101
SWIDTH 500 0
DWIDTH 14 0
BBX 14 14 0 0
BITMAP
0000
0000
0000
0000
0000
0F80
18C0
1FC0
1800
1800
18C0
0F80
0000
0000
ENDCHAR
STARTCHAR U+0066
ENCODING 102
SWIDTH 500 0
DWIDTH 14 0
BBX 14 14 0 0
BITMAP
0000
0000
03C0
0660
0600
0600
0FC0
0600
0600
0600
0600
0F00
0000
0000
ENDCHAR
STARTCHAR U+0067
ENCODING 103
SWIDTH 500 0
DWIDTH 14 0
BBX 14 14 0 0
BITMAP
0000
0000
0000
0000
0000
0F60
18C0
18C0
18C0
18C0
0FC0
00C0
18C0
0F80
ENDCHAR
STARTCHAR U+0068
ENCODING 104
SWIDTH 500 0
DWIDTH 14 0
BBX 14 14 0 0
BITMAP
0000
0000
1C00
0C00
0C00
0DC0
0E60
0C60
0C60
0C60
0C60
1C60
0000
0000
ENDCHAR
STARTCHAR U+0069
ENCODING 105
SWIDTH 500 0
DWIDTH 14 0
BBX 14 14 0 0
BITMAP
0000
0000
0300
0300
0000
0F00
0300
0300
0300
0300
0300
0FC0
0000
0000
ENDCHAR
STARTCHAR U+006A
ENCODING 106
SWIDTH 500 0
DWIDTH 14 0
BBX 14 14 0 0
BITMAP
0000
0000
00C0
00C0
0000
07C0
00C0
00C0
00C0
00C0
00C0
18C0
18C0
0F80
ENDCHAR
STARTCHAR U+006B
ENCODING 107
SWIDTH 500 0
DWIDTH 14 0
BBX 14 14 0 0
BITMAP
0000
0000
1C00
0C00
0C00
0C60
0CC0
0F80
0D80
0CC0
0C60
1C60
0000
0000
ENDCHAR
STARTCHAR U+006C
ENCODING 108
SWIDTH 500 0
DWIDTH 14 0
BBX 14 14 0 0
BITMAP
0000
0000
0F00
0300
0300
0300
0300
0300
0300
0300
0300
0FC0
0000
0000
ENDCHAR
STARTCHAR U+006D
ENCODING 109
SWIDTH 500 0
DWIDTH 14 0
BBX 14 14 0 0
BITMAP
0000
0000
0000
0000
0000
1FC0
1B60
1B60
1B60
1B60
1B60
1860
0000
0000
ENDCHAR
STARTCHAR U+006E
ENCODING 110
SWIDTH 500 0
DWIDTH 14 0
BBX 14 14 0 0
BITMAP
0000
0000
0000
0000
0000
1F80
18C0
18C0
18C0
18C0
18C0
18C0
0000
0000
ENDCHAR
STARTCHAR U+006F
ENCODING 111
SWIDTH 500 0
DWIDTH 14 0
BBX 14 14 0 0
BITMAP
0000
0000
0000
0000
0000
0F80
18C0
18C0
18C0
18C0
18C0
0F80
0000
0000
ENDCHAR
STARTCHAR U+0070
ENCODING 112
SWIDTH 500 0
DWIDTH 14 0
BBX 14 14 0 0
BITMAP
0000
0000
0000
0000
0000
1BC0
0C60
0C60
0C60
0C60
0FC0
0C00
0C00
1E00
ENDCHAR
STARTCHAR U+0071
ENCODING 113
SWIDTH 500 0
DWIDTH 14 0
BBX 14 14 0 0
BITMAP
0000
0000
0000
0000
0000
0F60
18C0
18C0
18C0
18C0
0FC0
00C0
00C0
01E0
ENDCHAR
STARTCHAR U+0072
ENCODING 114
SWIDTH 500 0
DWIDTH 14 0
BBX 14 14 0 0
BITMAP
0000
0000
0000
0000
0000
1DC0
0FE0
0E60
0C00
0C00
0C00
1E00
0000
0000
ENDCHAR
STARTCHAR U+0073
ENCODING 115
SWIDTH 500 0
DWIDTH 14 0
BBX 14 14 0 0
BITMAP
0000
0000
0000
0000
0000
0F80
18C0
1C00
0F80
01C0
18C0
0F80
0000
0000
ENDCHAR
STARTCHAR U+0074
ENCODING 116
SWIDTH 500 0
DWIDTH 14 0
BBX 14 14 0 0
BITMAP
0000
0000
0000
0400
0C00
1FC0
0C00
0C00
0C00
0C00
0CC0
0780
0000
0000
ENDCHAR
STARTCHAR U+0075
ENCODING 117
SWIDTH 500 0
DWIDTH 14 0
BBX 14 14 0 0
BITMAP
0000
0000
0000
0000
0000
18C0
18C0
18C0
18C0
18C0
18C0
0F60
0000
0000
ENDCHAR
STARTCHAR U+0076
ENCODING 118
SWIDTH 500 0
DWIDTH 14 0
BBX 14 14 0 0
BITMAP
0000
0000
0000
0000
0000
18C0
18C0
18C0
18C0
18C0
0F80
0700
0000
0000
ENDCHAR
STARTCHAR U+0077
ENCODING 119
SWIDTH 500 0
DWIDTH 14 0
BBX 14 14 0 0
BITMAP
0000
0000
0000
0000
0000
1860
1860
1860
1B60
1B60
0CC0
0CC0
0000
0000
ENDCHAR
STARTCHAR U+0078
ENCODING 120
SWIDTH 500 0
DWIDTH 14 0
BBX 14 14 0 0
BITMAP
0000
0000
0000
0000
0000
1860
0CC0
0780
0780
0780
0CC0
1860
0000
0000
ENDCHAR
STARTCHAR U+0079
ENCODING 121
SWIDTH 500 0
DWIDTH 14 0
BBX 14 14 0 0
BITMAP
0000
0000
0000
0000
0000
0C60
0C60
0C60
0C60
0C60
07C0
01C0
0380
1F00
ENDCHAR
STARTCHAR U+007A
ENCODING 122
SWIDTH 500 0
DWIDTH 14 0
BBX 14 14 0 0
BITMAP
0000
0000
0000
0000
0000
1FC0
1180
0300
0600
0C00
1840
1FC0
0000
0000
ENDCHAR
STARTCHAR U+007B
ENCODING 123
SWIDTH 500 0
DWIDTH 14 0
BBX 14 14 0 0
BITMAP
0000
0000
01C0
0300
0300
0600
0C00
0C00
0600
0300
0300
01C0
0000
0000
ENDCHAR
STARTCHAR U+007C
ENCODING 124
SWIDTH 500 0
DWIDTH 14 0
BBX 14 14 0 0
BITMAP
0000
0000
0300
0300
0300
0300
0000
0000
0300
0300
0300
0300
0000
0000
ENDCHAR
STARTCHAR U+007D
ENCODING 125
SWIDTH 500 0
DWIDTH 14 0
BBX 14 14 0 0
BITMAP
0000
0000
0E00
0300
0300
0180
00C0
00C0
0180
0300
0300
0E00
0000
0000
ENDCHAR
STARTCHAR U+007E
ENCODING 126
SWIDTH 500 0
DWIDTH 14 0
BBX 14 14 0 0
BITMAP
0000
0000
0E60
1B60
19C0
0000
0000
0000
0000
0000
0000
0000
0000
0000
ENDCHAR
STARTCHAR U+2302
ENCODING 8962
SWIDTH 500 0
DWIDTH 14 0
BBX 14 14 0 0
BITMAP
0000
0000
0000
0000
0300
0780
0CC0
1860
1860
1860
1FE0
0000
0000
0000
ENDCHAR
STARTCHAR U+00C7
ENCODING 199
SWIDTH 500 0
DWIDTH 14 0
BBX 14 14 0 0
BITMAP
0000
07C0
0C60
1C60
1800
1800
1800
1800
1C60
0C60
07C0
0380
0380
1F80
ENDCHAR
STARTCHAR U+00FC
ENCODING 252
SWIDTH 500 0
DWIDTH 14 0
BBX 14 14 0 0
BITMAP
0000
0000
18C0
18C0
0000
18C0
18C0
18C0
18C0
18C0
18C0
0F60
0000
0000
ENDCHAR
STARTCHAR U+00E9
ENCODING 233
SWIDTH 500 0
DWIDTH 14 0
BBX 14 14 0 0
BITMAP
0000
0180
0300
0600
0000
0F80
18C0
1FC0
1800
1800
18C0
0F80
0000
0000
ENDCHAR
STARTCHAR U+00E2
ENCODING 226
SWIDTH 500 0
DWIDTH 14 0
BBX 14 14 0 0
BITMAP
0000
0700
0D80
18C0
0000
0F80
00C0
0FC0
18C0
18C0
18C0
0F60
0000
0000
ENDCHAR
STARTCHAR U+00E4
ENCODING 228
SWIDTH 500 0
DWIDTH 14 0
BBX 14 14 0 0
BITMAP
0000
0000
0CC0
0CC0
0000
0F80
00C0
0FC0
18C0
18C0
18C0
0F60
0000
0000
ENDCHAR
STARTCHAR U+00E0
ENCODING 224
SWIDTH 500 0
DWIDTH 14 0
BBX 14 14 0 0
BITMAP
0000
0600
0300
0180
0000
0F80
00C0
0FC0
18C0
18C0
18C0
0F60
0000
0000
ENDCHAR
STARTCHAR U+00E5
ENCODING 229
SWIDTH 500 0
DWIDTH 14 0
BBX 14 14 0 0
BITMAP
0000
0300
0480
0480
0300
0F80
00C0
0FC0
18C0
18C0
18C0
0F60
0000
0000
ENDCHAR
STARTCHAR U+00E7
ENCODING 231
SWIDTH 500 0
DWIDTH 14 0
BBX 14 14 0 0
BITMAP
0000
0000
0000
0000
0000
0F80
18C0
1800
1800
1800
18C0
0F80
0700
1F00
ENDCHAR
STARTCHAR U+00EA
ENCODING 234
SWIDTH 500 0
DWIDTH 14 0
BBX 14 14 0 0
BITMAP
0000
0700
0D80
18C0
0000
0F80
18C0
1FC0
1800
1800
18C0
0F80
0000
0000
ENDCHAR
STARTCHAR U+00EB
ENCODING 235
SWIDTH 500 0
DWIDTH 14 0
BBX 14 14 0 0
BITMAP
0000
0000
0CC0
0CC0
0000
0F80
18C0
1FC0
1800
1800
18C0
0F80
0000
0000
ENDCHAR
STARTCHAR U+00E8
ENCODING 232
SWIDTH 500 0
DWIDTH 14 0
BBX 14 14 0 0
BITMAP
0000
0C00
0600
0300
0000
0F80
18C0
1FC0
1800
1800
18C0
0F80
0000
0000
ENDCHAR
STARTCHAR U+00EF
ENCODING 239
SWIDTH 500 0
DWIDTH 14 0
BBX 14 14 0 0
BITMAP
0000
0000
0CC0
0CC0
0000
0F00
0300
0300
0300
0300
0300
0FC0
0000
0000
ENDCHAR
STARTCHAR U+00EE
ENCODING 238
SWIDTH 500 0
DWIDTH 14 0
BBX 14 14 0 0
BITMAP
0000
0300
0780
0CC0
0000
0F00
0300
0300
0300
0300
0300
0FC0
0000
0000
ENDCHAR
STARTCHAR U+00EC
ENCODING 236
SWIDTH 500 0
DWIDTH 14 0
BBX 14 14 0 0
BITMAP
0000
0C00
0600
0300
0000
0F00
0300
0300
0300
0300
0300
0FC0
0000
0000
ENDCHAR
STARTCHAR U+00C4
ENCODING 196
SWIDTH 500 0
DWIDTH 14 0
BBX 14 14 0 0
BITMAP
0000
0CC0
0CC0
0000
0300
0780
0CC0
1860
1860
1FE0
1860
1860
0000
0000
ENDCHAR
STARTCHAR U+00C5
ENCODING 197
SWIDTH 500 0
DWIDTH 14 0
BBX 14 14 0 0
BITMAP
0000
0300
0480
0480
0300
0780
0CC0
1860
1860
1FE0
1860
1860
0000
0000
ENDCHAR
STARTCHAR U+00C9
ENCODING 201
SWIDTH 500 0
DWIDTH 14 0
BBX 14 14 0 0
BITMAP
0000
0180
0300
0600
1FC0
1840
1800
1F80
1F80
1800
1840
1FC0
0000
0000
ENDCHAR
STARTCHAR U+00E6
ENCODING 230
SWIDTH 500 0
DWIDTH 14 0
BBX 14 14 0 0
BITMAP
0000
0000
0000
0000
0000
1FE0
0330
0330
1FE0
3300
3330
3DE0
0000
0000
ENDCHAR
STARTCHAR U+00C6
ENCODING 198
SWIDTH 500 0
DWIDTH 14 0
BBX 14 14 0 0
BITMAP
0000
0000
07F0
0F80
1D80
1980
1FF0
1FF0
1980
1980
1980
19F0
0000
0000
ENDCHAR
STARTCHAR U+00F4
ENCODING 244
SWIDTH 500 0
DWIDTH 14 0
BBX 14 14 0 0
BITMAP
0000
0700
0D80
18C0
0000
0F80
18C0
18C0
18C0
18C0
18C0
0F80
0000
0000
ENDCHAR
STARTCHAR U+00F6
ENCODING 246
SWIDTH 500 0
DWIDTH 14 0
BBX 14 14 0 0
BITMAP
0000
0000
0CC0
0CC0
0000
0F80
18C0
18C0
18C0
18C0
18C0
0F80
0000
0000
ENDCHAR
STARTCHAR U+00F2
ENCODING 242
SWIDTH 500 0
DWIDTH 14 0
BBX 14 14 0 0
BITMAP
0000
0600
0300
0180
0000
07C0
0C60
0C60
0C60
0C60
0C60
07C0
0000
0000
ENDCHAR
STARTCHAR U+00FB
ENCODING 251
SWIDTH 500 0
DWIDTH 14 0
BBX 14 14 0 0
BITMAP
0000
0700
0D80
18C0
0000
18C0
18C0
18C0
18C0
18C0
18C0
0F60
0000
0000
ENDCHAR
STARTCHAR U+00F9
ENCODING 249
SWIDTH 500 0
DWIDTH 14 0
BBX 14 14 0 0
BITMAP
0000
0C00
0600
0300
0000
18C0
18C0
18C0
18C0
18C0
18C0
0F60
0000
0000
ENDCHAR
STARTCHAR U+00FF
ENCODING 255
SWIDTH 500 0
DWIDTH 14 0
BBX 14 14 0 0
BITMAP
0000
0000
0CC0
0CC0
0000
18C0
18C0
18C0
18C0
18C0
0F80
0380
0700
3E00
ENDCHAR
STARTCHAR U+00D6
ENCODING 214
SWIDTH 500 0
DWIDTH 14 0
BBX 14 14 0 0
BITMAP
0000
0CC0
0CC0
0000
0780
0CC0
1860
1860
1860
1860
0CC0
0780
0000
0000
ENDCHAR
STARTCHAR U+00DC
ENCODING 220
SWIDTH 500 0
DWIDTH 14 0
BBX 14 14 0 0
BITMAP
0000
0CC0
0CC0
0000
18C0
18C0
18C0
18C0
18C0
18C0
18C0
0F80
0000
0000
ENDCHAR
STARTCHAR U+00A2
ENCODING 162
SWIDTH 500 0
DWIDTH 14 0
BBX 14 14 0 0
BITMAP
0000
0300
0300
0780
0CC0
1800
1800
1800
1800
0CC0
0780
0300
0300
0000
ENDCHAR
STARTCHAR U+00A3
ENCODING 163
SWIDTH 500 0
DWIDTH 14 0
BBX 14 14 0 0
BITMAP
0000
0380
07C0
0C60
0C00
0C00
0C00
1FC0
1FC0
0C00
0C00
1820
1FE0
0000
ENDCHAR
STARTCHAR U+00A5
ENCODING 165
SWIDTH 500 0
DWIDTH 14 0
BBX 14 14 0 0
BITMAP
0000
0CC0
0CC0
0CC0
0CC0
0780
0300
0FC0
0300
0FC0
0300
0300
0300
0000
ENDCHAR
STARTCHAR U+20A7
ENCODING 8359
SWIDTH 500 0
DWIDTH 14 0
BBX 14 14 0 0
BITMAP
0000
0000
3E00
3100
3100
3100
3100
3E00
3100
33C0
3190
3190
30E0
0000
ENDCHAR
STARTCHAR U+0192
ENCODING 402
SWIDTH 500 0
DWIDTH 14 0
BBX 14 14 0 0
BITMAP
0000
01C0
0360
0300
0300
0FC0
0300
0300
0300
0300
1B00
1B00
0E00
0000
ENDCHAR
STARTCHAR U+00E1
ENCODING 225
SWIDTH 500 0
DWIDTH 14 0
BBX 14 14 0 0
BITMAP
0000
0300
0600
0C00
0000
1F00
0180
1F80
3180
3180
3180
1EC0
0000
0000
ENDCHAR
STARTCHAR U+00ED
ENCODING 237
SWIDTH 500 0
DWIDTH 14 0
BBX 14 14 0 0
BITMAP
0000
0180
0300
0600
0000
0F00
0300
0300
0300
0300
0300
0FC0
0000
0000
ENDCHAR
STARTCHAR U+00F3
ENCODING 243
SWIDTH 500 0
DWIDTH 14 0
BBX 14 14 0 0
BITMAP
0000
0180
0300
0600
0000
0F80
18C0
18C0
18C0
18C0
18C0
0F80
0000
0000
ENDCHAR
STARTCHAR U+00FA
ENCODING 250
SWIDTH 500 0
DWIDTH 14 0
BBX 14 14 0 0
BITMAP
0000
0300
0600
0C00
0000
18C0
18C0
18C0
18C0
18C0
18C0
0F60
0000
0000
ENDCHAR
STARTCHAR U+00F1
ENCODING 241
SWIDTH 500 0
DWIDTH 14 0
BBX 14 14 0 0
BITMAP
0000
0000
0EC0
1B80
0000
1F80
18C0
18C0
18C0
18C0
18C0
18C0
0000
0000
ENDCHAR
STARTCHAR U+00D1
ENCODING 209
SWIDTH 500 0
DWIDTH 14 0
BBX 14 14 0 0
BITMAP
0000
0F60
1BC0
0000
1860
1C60
1E60
1B60
19E0
18E0
1860
1860
0000
0000
ENDCHAR
STARTCHAR U+00AA
ENCODING 170
SWIDTH 500 0
DWIDTH 14 0
BBX 14 14 0 0
BITMAP
0000
0700
0080
0780
0880
0740
0000
1FE0
0000
0000
0000
0000
0000
0000
ENDCHAR
STARTCHAR U+00BA
ENCODING 186
SWIDTH 500 0
DWIDTH 14 0
BBX 14 14 0 0
BITMAP
0000
0000
0780
0CC0
0CC0
0780
0000
1FE0
0000
0000
0000
0000
0000
0000
ENDCHAR
STARTCHAR U+00BF
ENCODING 191
SWIDTH 500 0
DWIDTH 14 0
BBX 14 14 0 0
BITMAP
0000
0000
0300
0300
0000
0300
0300
0380
01C0
18C0
1DC0
0F80
0000
0000
ENDCHAR
STARTCHAR U+2310
ENCODING 8976
SWIDTH 500 0
DWIDTH 14 0
BBX 14 14 0 0
BITMAP
0000
0000
0000
0000
3FF0
3000
3000
3000
3000
0000
0000
0000
0000
0000
ENDCHAR
STARTCHAR U+00AC
ENCODING 172
SWIDTH 500 0
DWIDTH 14 0
BBX 14 14 0 0
BITMAP
0000
0000
0000
0000
3FF0
0030
0030
0030
0030
0000
0000
0000
0000
0000
ENDCHAR
STARTCHAR U+00BD
ENCODING 189
SWIDTH 500 0
DWIDTH 14 0
BBX 14 14 0 0
BITMAP
0000
3030
7060
30C0
3180
3300
0600
0CF0
1918
3030
2060
00C0
01F8
0000
ENDCHAR
STARTCHAR U+00BC
ENCODING 188
SWIDTH 500 0
DWIDTH 14 0
BBX 14 14 0 0
BITMAP
0000
3030
7060
30C0
3180
3370
06F0
0DB0
1B30
3630
27F0
0030
0030
0000
ENDCHAR
STARTCHAR U+00A1
ENCODING 161
SWIDTH 500 0
DWIDTH 14 0
BBX 14 14 0 0
BITMAP
0000
0000
0300
0300
0000
0300
0300
0780
0780
0780
0780
0300
0000
0000
ENDCHAR
STARTCHAR U+00AB
ENCODING 171
SWIDTH 500 0
DWIDTH 14 0
BBX 14 14 0 0
BITMAP
0000
0000
0000
0660
0CC0
1980
3300
3300
1980
0CC0
0660
0000
0000
0000
ENDCHAR
STARTCHAR U+00BB
ENCODING 187
SWIDTH 500 0
DWIDTH 14 0
BBX 14 14 0 0
BITMAP
0000
0000
0000
1980
0CC0
0660
0330
0330
0660
0CC0
1980
0000
0000
0000
ENDCHAR
STARTCHAR U+2591
ENCODING 9617
SWIDTH 500 0
DWIDTH 14 0
BBX 14 14 0 0
BITMAP
1110
4444
1110
4444
1110
4444
1110
4444
1110
4444
1110
4444
1110
4444
ENDCHAR
STARTCHAR U+2592
ENCODING 9618
SWIDTH 500 0
DWIDTH 14 0
BBX 14 14 0 0
BITMAP
5554
AAA8
5554
AAA8
5554
AAA8
5554
AAA8
5554
AAA8
5554
AAA8
5554
AAA8
ENDCHAR
STARTCHAR U+2593
ENCODING 9619
SWIDTH 500 0
DWIDTH 14 0
BBX 14 14 0 0
BITMAP
DDDC
7774
DDDC
7774
DDDC
7774
DDDC
7774
DDDC
7774
DDDC
7774
DDDC
7774
ENDCHAR
STARTCHAR U+2502
ENCODING 9474
SWIDTH 500 0
DWIDTH 14 0
BBX 14 14 0 0
BITMAP
0300
0300
0300
0300
0300
0300
0300
0300
0300
0300
0300
0300
0300
0300
ENDCHAR
STARTCHAR U+2524
ENCODING 9508
SWIDTH 500 0
DWIDTH 14 0
BBX 14 14 0 0
BITMAP
0300
0300
0300
0300
0300
0300
FF00
FF00
0300
0300
0300
0300
0300
0300
ENDCHAR
STARTCHAR U+2561
ENCODING 9569
SWIDTH 500 0
DWIDTH 14 0
BBX 14 14 0 0
BITMAP
0300
0300
0300
0300
FF00
FF00
0300
0300
FF00
FF00
0300
0300
0300
0300
ENDCHAR
STARTCHAR U+2562
ENCODING 9570
SWIDTH 500 0
DWIDTH 14 0
BBX 14 14 0 0
BITMAP
0CC0
0CC0
0CC0
0CC0
0CC0
0CC0
FCC0
FCC0
0CC0
0CC0
0CC0
0CC0
0CC0
0CC0
ENDCHAR
STARTCHAR U+2556
ENCODING 9558
SWIDTH 500 0
DWIDTH 14 0
BBX 14 14 0 0
BITMAP
0000
0000
0000
0000
0000
0000
FFC0
FFC0
0CC0
0CC0
0CC0
0CC0
0CC0
0CC0
ENDCHAR
STARTCHAR U+2555
ENCODING 9557
SWIDTH 500 0
DWIDTH 14 0
BBX 14 14 0 0
BITMAP
0000
0000
0000
0000
FF00
FF00
0300
0300
FF00
FF00
0300
0300
0300
0300
ENDCHAR
STARTCHAR U+2563
ENCODING 9571
SWIDTH 500 0
DWIDTH 14 0
BBX 14 14 0 0
BITMAP
0CC0
0CC0
0CC0
0CC0
FCC0
FCC0
00C0
00C0
FCC0
FCC0
0CC0
0CC0
0CC0
0CC0
ENDCHAR
STARTCHAR U+2551
ENCODING 9553
SWIDTH 500 0
DWIDTH 14 0
BBX 14 14 0 0
BITMAP
0CC0
0CC0
0CC0
0CC0
0CC0
0CC0
0CC0
0CC0
0CC0
0CC0
0CC0
0CC0
0CC0
0CC0
ENDCHAR
STARTCHAR U+2557
ENCODING 9559
SWIDTH 500 0
DWIDTH 14 0
BBX 14 14 0 0
BITMAP
0000
0000
0000
0000
FFC0
FFC0
00C0
00C0
FCC0
FCC0
0CC0
0CC0
0CC0
0CC0
ENDCHAR
STARTCHAR U+255D
ENCODING 9565
SWIDTH 500 0
DWIDTH 14 0
BBX 14 14 0 0
BITMAP
0CC0
0CC0
0CC0
0CC0
FCC0
FCC0
00C0
00C0
FFC0
FFC0
0000
0000
0000
0000
ENDCHAR
STARTCHAR U+255C
ENCODING 9564
SWIDTH 500 0
DWIDTH 14 0
BBX 14 14 0 0
BITMAP
0CC0
0CC0
0CC0
0CC0
0CC0
0CC0
FFC0
FFC0
0000
0000
0000
0000
0000
0000
ENDCHAR
STARTCHAR U+255B
ENCODING 9563
SWIDTH 500 0
DWIDTH 14 0
BBX 14 14 0 0
BITMAP
0300
0300
0300
0300
FF00
FF00
0300
0300
FF00
FF00
0000
0000
0000
0000
ENDCHAR
STARTCHAR U+2510
ENCODING 9488
SWIDTH 500 0
DWIDTH 14 0
BBX 14 14 0 0
BITMAP
0000
0000
0000
0000
0000
0000
FF00
FF00
0300
0300
0300
0300
0300
0300
ENDCHAR
STARTCHAR U+2514
ENCODING 9492
SWIDTH 500 0
DWIDTH 14 0
BBX 14 14 0 0
BITMAP
0300
0300
0300
0300
0300
0300
03FC
03FC
0000
0000
0000
0000
0000
0000
ENDCHAR
STARTCHAR U+2534
ENCODING 9524
SWIDTH 500 0
DWIDTH 14 0
BBX 14 14 0 0
BITMAP
0300
0300
0300
0300
0300
0300
FFFC
FFFC
0000
0000
0000
0000
0000
0000
ENDCHAR
STARTCHAR U+252C
ENCODING 9516
SWIDTH 500 0
DWIDTH 14 0
BBX 14 14 0 0
BITMAP
0000
0000
0000
0000
0000
0000
FFFC
FFFC
0300
0300
0300
0300
0300
0300
ENDCHAR
STARTCHAR U+251C
ENCODING 9500
SWIDTH 500 0
DWIDTH 14 0
BBX 14 14 0 0
BITMAP
0300
0300
0300
0300
0300
0300
03FC
03FC
0300
0300
0300
0300
0300
0300
ENDCHAR
STARTCHAR U+2500
ENCODING 9472
SWIDTH 500 0
DWIDTH 14 0
BBX 14 14 0 0
BITMAP
0000
0000
0000
0000
0000
0000
FFFC
FFFC
0000
0000
0000
0000
0000
0000
ENDCHAR
STARTCHAR U+253C
ENCODING 9532
SWIDTH 500 0
DWIDTH 14 0
BBX 14 14 0 0
BITMAP
0300
0300
0300
0300
0300
0300
FFFC
FFFC
0300
0300
0300
0300
0300
0300
ENDCHAR
STARTCHAR U+255E
ENCODING 9566
SWIDTH 500 0
DWIDTH 14 0
BBX 14 14 0 0
BITMAP
0300
0300
0300
0300
03FC
03FC
0300
0300
03FC
03FC
0300
0300
0300
0300
ENDCHAR
STARTCHAR U+255F
ENCODING 9567
SWIDTH 500 0
DWIDTH 14 0
BBX 14 14 0 0
BITMAP
0CC0
0CC0
0CC0
0CC0
0CC0
0CC0
0CFC
0CFC
0CC0
0CC0
0CC0
0CC0
0CC0
0CC0
ENDCHAR
STARTCHAR U+255A
ENCODING 9562
SWIDTH 500 0
DWIDTH 14 0
BBX 14 14 0 0
BITMAP
0CC0
0CC0
0CC0
0CFC
0CFC
0CFC
0C00
0C00
0FFC
0FFC
0000
0000
0000
0000
ENDCHAR
STARTCHAR U+2554
ENCODING 9556
SWIDTH 500 0
DWIDTH 14 0
BBX 14 14 0 0
BITMAP
0000
0000
0000
0000
0FFC
0FFC
0C00
0C00
0CFC
0CFC
0CC0
0CC0
0CC0
0CC0
ENDCHAR
STARTCHAR U+2569
ENCODING 9577
SWIDTH 500 0
DWIDTH 14 0
BBX 14 14 0 0
BITMAP
0CC0
0CC0
0CC0
0CC0
FCFC
FCFC
0000
0000
FFFC
FFFC
0000
0000
0000
0000
ENDCHAR
STARTCHAR U+2566
ENCODING 9574
SWIDTH 500 0
DWIDTH 14 0
BBX 14 14 0 0
BITMAP
0000
0000
0000
0000
FFFC
FFFC
0000
0000
FCFC
FCFC
0CC0
0CC0
0CC0
0CC0
ENDCHAR
STARTCHAR U+2560
ENCODING 9568
SWIDTH 500 0
DWIDTH 14 0
BBX 14 14 0 0
BITMAP
0CC0
0CC0
0CC0
0CC0
0CFC
0CFC
0C00
0C00
0CFC
0CFC
0CC0
0CC0
0CC0
0CC0
ENDCHAR
STARTCHAR U+2550
ENCODING 9552
SWIDTH 500 0
DWIDTH 14 0
BBX 14 14 0 0
BITMAP
0000
0000
0000
0000
FFFC
FFFC
0000
0000
FFFC
FFFC
0000
0000
0000
0000
ENDCHAR
STARTCHAR U+256C
ENCODING 9580
SWIDTH 500 0
DWIDTH 14 0
BBX 14 14 0 0
BITMAP
0CC0
0CC0
0CC0
0CC0
FCFC
FCFC
0000
0000
FCFC
FCFC
0CC0
0CC0
0CC0
0CC0
ENDCHAR
STARTCHAR U+2567
ENCODING 9575
SWIDTH 500 0
DWIDTH 14 0
BBX 14 14 0 0
BITMAP
0300
0300
0300
0300
FFFC
FFFC
0000
0000
FFFC
FFFC
0000
0000
0000
0000
ENDCHAR
STARTCHAR U+2568
ENCODING 9576
SWIDTH 500 0
DWIDTH 14 0
BBX 14 14 0 0
BITMAP
0CC0
0CC0
0CC0
0CC0
0CC0
0CC0
FFFC
FFFC
0000
0000
0000
0000
0000
0000
ENDCHAR
STARTCHAR U+2564
ENCODING 9572
SWIDTH 500 0
DWIDTH 14 0
BBX 14 14 0 0
BITMAP
0000
0000
0000
0000
FFFC
FFFC
0000
0000
FFFC
FFFC
0300
0300
0300
0300
ENDCHAR
STARTCHAR U+2565
ENCODING 9573
SWIDTH 500 0
DWIDTH 14 0
BBX 14 14 0 0
BITMAP
0000
0000
0000
0000
0000
0000
FFFC
FFFC
0CC0
0CC0
0CC0
0CC0
0CC0
0CC0
ENDCHAR
STARTCHAR U+2559
ENCODING 9561
SWIDTH 500 0
DWIDTH 14 0
BBX 14 14 0 0
BITMAP
0CC0
0CC0
0CC0
0CC0
0CC0
0CC0
0FFC
0FFC
0000
0000
0000
0000
0000
0000
ENDCHAR
STARTCHAR U+2558
ENCODING 9560
SWIDTH 500 0
DWIDTH 14 0
BBX 14 14 0 0
BITMAP
0300
0300
0300
0300
03FC
03FC
0300
0300
03FC
03FC
0000
0000
0000
0000
ENDCHAR
STARTCHAR U+2552
ENCODING 9554
SWIDTH 500 0
DWIDTH 14 0
BBX 14 14 0 0
BITMAP
0000
0000
0000
0000
03FC
03FC
0300
0300
03FC
03FC
0300
0300
0300
0300
ENDCHAR
STARTCHAR U+2553
ENCODING 9555
SWIDTH 500 0
DWIDTH 14 0
BBX 14 14 0 0
BITMAP
0000
0000
0000
0000
0000
0000
0FFC
0FFC
0CC0
0CC0
0CC0
0CC0
0CC0
0CC0
ENDCHAR
STARTCHAR U+256B
ENCODING 9579
SWIDTH 500 0
DWIDTH 14 0
BBX 14 14 0 0
BITMAP
0CC0
0CC0
0CC0
0CC0
0CC0
0CC0
FCFC
FCFC
0CC0
0CC0
0CC0
0CC0
0CC0
0CC0
ENDCHAR
STARTCHAR U+256A
ENCODING 9578
SWIDTH 500 0
DWIDTH 14 0
BBX 14 14 0 0
BITMAP
0300
0300
0300
0300
FFFC
FFFC
0000
0000
FFFC
FFFC
0300
0300
0300
0300
ENDCHAR
STARTCHAR U+2518
ENCODING 9496
SWIDTH 500 0
DWIDTH 14 0
BBX 14 14 0 0
BITMAP
0300
0300
0300
0300
0300
0300
FF00
FF00
0000
0000
0000
0000
0000
0000
ENDCHAR
STARTCHAR U+250C
ENCODING 9484
SWIDTH 500 0
DWIDTH 14 0
BBX 14 14 0 0
BITMAP
0000
0000
0000
0000
0000
0000
03FC
03FC
0300
0300
0300
0300
0300
0300
ENDCHAR
STARTCHAR U+2588
ENCODING 9608
SWIDTH 500 0
DWIDTH 14 0
BBX 14 14 0 0
BITMAP
FFFC
FFFC
FFFC
FFFC
FFFC
FFFC
FFFC
FFFC
FFFC
FFFC
FFFC
FFFC
FFFC
FFFC
ENDCHAR
STARTCHAR U+2584
ENCODING 9604
SWIDTH 500 0
DWIDTH 14 0
BBX 14 14 0 0
BITMAP
0000
0000
0000
0000
0000
0000
0000
FFFC
FFFC
FFFC
FFFC
FFFC
FFFC
FFFC
ENDCHAR
STARTCHAR U+258C
ENCODING 9612
SWIDTH 500 0
DWIDTH 14 0
BBX 14 14 0 0
BITMAP
FE00
FE00
FE00
FE00
FE00
FE00
FE00
FE00
FE00
FE00
FE00
FE00
FE00
FE00
ENDCHAR
STARTCHAR U+2590
ENCODING 9616
SWIDTH 500 0
DWIDTH 14 0
BBX 14 14 0 0
BITMAP
01FC
01FC
01FC
01FC
01FC
01FC
01FC
01FC
01FC
01FC
01FC
01FC
01FC
01FC
ENDCHAR
STARTCHAR U+2580
ENCODING 9600
SWIDTH 500 0
DWIDTH 14 0
BBX 14 14 0 0
BITMAP
FFFC
FFFC
FFFC
FFFC
FFFC
FFFC
FFFC
0000
0000
0000
0000
0000
0000
0000
ENDCHAR
STARTCHAR U+03B1
ENCODING 945
SWIDTH 500 0
DWIDTH 14 0
BBX 14 14 0 0
BITMAP
0000
0000
0000
0000
0F60
19E0
18C0
18C0
18C0
19E0
0F60
0000
0000
0000
ENDCHAR
STARTCHAR U+00DF
ENCODING 223
SWIDTH 500 0
DWIDTH 14 0
BBX 14 14 0 0
BITMAP
0000
0000
0F80
18C0
18C0
18C0
1B80
18C0
18C0
18C0
1F80
1800
0C00
0000
ENDCHAR
STARTCHAR U+0393
ENCODING 915
SWIDTH 500 0
DWIDTH 14 0
BBX 14 14 0 0
BITMAP
0000
0000
1FE0
18E0
18E0
1800
1800
1800
1800
1800
1800
1800
0000
0000
ENDCHAR
STARTCHAR U+03C0
ENCODING 960
SWIDTH 500 0
DWIDTH 14 0
BBX 14 14 0 0
BITMAP
0000
0000
3FE0
3FE0
18C0
18C0
18C0
18C0
18C0
18C0
18C0
1860
0000
0000
ENDCHAR
STARTCHAR U+03A3
ENCODING 931
SWIDTH 500 0
DWIDTH 14 0
BBX 14 14 0 0
BITMAP
0000
0000
1FC0
18C0
0C40
0600
0300
0300
0600
0C40
18C0
1FC0
0000
0000
ENDCHAR
STARTCHAR U+03C3
ENCODING 963
SWIDTH 500 0
DWIDTH 14 0
BBX 14 14 0 0
BITMAP
0000
0000
0000
0000
0000
0FE0
1880
18C0
18C0
18C0
18C0
0F80
0000
0000
ENDCHAR
STARTCHAR U+00B5
ENCODING 181
SWIDTH 500 0
DWIDTH 14 0
BBX 14 14 0 0
BITMAP
0000
0000
0000
0000
0000
0C60
0C60
0C60
0C60
0C60
0C60
0FB0
0C00
1800
ENDCHAR
STARTCHAR U+03C4
ENCODING 964
SWIDTH 500 0
DWIDTH 14 0
BBX 14 14 0 0
BITMAP
0000
0000
0000
0000
0E60
1BC0
0380
0380
0380
0380
0380
01E0
0000
0000
ENDCHAR
STARTCHAR U+03A6
ENCODING 934
SWIDTH 500 0
DWIDTH 14 0
BBX 14 14 0 0
BITMAP
0000
0000
1FE0
0780
0FC0
1860
1860
1860
1860
0FC0
0780
1FE0
0000
0000
ENDCHAR
STARTCHAR U+0398
ENCODING 920
SWIDTH 500 0
DWIDTH 14 0
BBX 14 14 0 0
BITMAP
0000
0000
0F80
18C0
18C0
18C0
1FC0
1FC0
18C0
18C0
18C0
0F80
0000
0000
ENDCHAR
STARTCHAR U+03A9
ENCODING 937
SWIDTH 500 0
DWIDTH 14 0
BBX 14 14 0 0
BITMAP
0000
0000
0FC0
1860
3030
3030
3030
1860
0CC0
0CC0
0CC0
1CE0
0000
0000
ENDCHAR
STARTCHAR U+03B4
ENCODING 948
SWIDTH 500 0
DWIDTH 14 0
BBX 14 14 0 0
BITMAP
0000
0000
07C0
0E00
0700
0F80
18C0
18C0
18C0
18C0
18C0
0F80
0000
0000
ENDCHAR
STARTCHAR U+221E
ENCODING 8734
SWIDTH 500 0
DWIDTH 14 0
BBX 14 14 0 0
BITMAP
0000
0000
0000
0000
1EC0
3760
3760
3760
3760
1BC0
0000
0000
0000
0000
ENDCHAR
STARTCHAR U+03C6
ENCODING 966
SWIDTH 500 0
DWIDTH 14 0
BBX 14 14 0 0
BITMAP
0000
0000
0000
0020
0740
0C80
0940
0A40
04C0
0B80
1000
0000
0000
0000
ENDCHAR
STARTCHAR U+03B5
ENCODING 949
SWIDTH 500 0
DWIDTH 14 0
BBX 14 14 0 0
BITMAP
0000
0000
0000
07C0
0C00
1800
1800
1FC0
1800
1800
0C00
07C0
0000
0000
ENDCHAR
STARTCHAR U+2229
ENCODING 8745
SWIDTH 500 0
DWIDTH 14 0
BBX 14 14 0 0
BITMAP
0000
0000
0000
0000
0F00
1980
1980
1980
1980
1980
1980
1980
0000
0000
ENDCHAR
STARTCHAR U+2261
ENCODING 8801
SWIDTH 500 0
DWIDTH 14 0
BBX 14 14 0 0
BITMAP
0000
0000
1FE0
1FE0
0000
0000
1FE0
1FE0
0000
0000
1FE0
1FE0
0000
0000
ENDCHAR
STARTCHAR U+00B1
ENCODING 177
SWIDTH 500 0
DWIDTH 14 0
BBX 14 14 0 0
BITMAP
0000
0000
0300
0300
1FE0
1FE0
0300
0300
0000
1FE0
1FE0
0000
0000
0000
ENDCHAR
STARTCHAR U+2265
ENCODING 8805
SWIDTH 500 0
DWIDTH 14 0
BBX 14 14 0 0
BITMAP
0000
0600
0300
0180
00C0
0180
0300
0600
0000
1FE0
1FE0
0000
0000
0000
ENDCHAR
STARTCHAR U+2264
ENCODING 8804
SWIDTH 500 0
DWIDTH 14 0
BBX 14 14 0 0
BITMAP
0000
0180
0300
0600
0C00
0600
0300
0180
0000
1FE0
1FE0
0000
0000
0000
ENDCHAR
STARTCHAR U+2320
ENCODING 8992
SWIDTH 500 0
DWIDTH 14 0
BBX 14 14 0 0
BITMAP
0000
0000
03C0
0660
0660
0600
0600
0600
0600
0600
0600
0600
0600
0600
ENDCHAR
STARTCHAR U+2321
ENCODING 8993
SWIDTH 500 0
DWIDTH 14 0
BBX 14 14 0 0
BITMAP
00C0
00C0
00C0
00C0
00C0
00C0
00C0
00C0
00C0
0CC0
0CC0
0780
0000
0000
ENDCHAR
STARTCHAR U+00F7
ENCODING 247
SWIDTH 500 0
DWIDTH 14 0
BBX 14 14 0 0
BITMAP
0000
0000
0000
0300
0300
0000
1FE0
1FE0
0000
0300
0300
0000
0000
0000
ENDCHAR
STARTCHAR U+2248
ENCODING 8776
SWIDTH 500 0
DWIDTH 14 0
BBX 14 14 0 0
BITMAP
0000
0000
0000
0000
0E20
1B60
11C0
0000
0E20
1B60
11C0
0000
0000
0000
ENDCHAR
STARTCHAR U+00B0
ENCODING 176
SWIDTH 500 0
DWIDTH 14 0
BBX 14 14 0 0
BITMAP
0000
0000
0780
0CC0
0CC0
0CC0
0780
0000
0000
0000
0000
0000
0000
0000
ENDCHAR
STARTCHAR U+2219
ENCODING 8729
SWIDTH 500 0
DWIDTH 14 0
BBX 14 14 0 0
BITMAP
0000
0000
0000
0000
0000
0000
0300
0300
0000
0000
0000
0000
0000
0000
ENDCHAR
STARTCHAR U+00B7
ENCODING 183
SWIDTH 500 0
DWIDTH 14 0
BBX 14 14 0 0
BITMAP
0000
0000
0000
0000
0000
0000
0000
0300
0000
0000
0000
0000
0000
0000
ENDCHAR
STARTCHAR U+221A
ENCODING 8730
SWIDTH 500 0
DWIDTH 14 0
BBX 14 14 0 0
BITMAP
0000
0000
00E0
0080
0080
0080
3080
1880
0C80
0680
0380
0180
0000
0000
ENDCHAR
STARTCHAR U+207F
ENCODING 8319
SWIDTH 500 0
DWIDTH 14 0
BBX 14 14 0 0
BITMAP
0000
0000
1B80
0CC0
0CC0
0CC0
0CC0
0CC0
0000
0000
0000
0000
0000
0000
ENDCHAR
STARTCHAR U+00B2
ENCODING 178
SWIDTH 500 0
DWIDTH 14 0
BBX 14 14 0 0
BITMAP
0000
0000
0F80
00C0
0180
0300
0600
0FC0
0000
0000
0000
0000
0000
0000
ENDCHAR
STARTCHAR U+25A0
ENCODING 9632
SWIDTH 500 0
DWIDTH 14 0
BBX 14 14 0 0
BITMAP
0000
0000
0000
1FE0
1FE0
1FE0
1FE0
1FE0
1FE0
1FE0
1FE0
0000
0000
0000
ENDCHAR
STARTCHAR U+00FF
ENCODING 255
SWIDTH 500 0
DWIDTH 14 0
BBX 14 14 0 0
BITMAP
0000
0000
0000
1FE0
1020
1020
1020
1020
1020
1020
1FE0
0000
0000
0000
ENDCHAR
ENDFONT
